<?xml version="1.0" encoding="UTF-8"?>
<svg id="favicon" xmlns="http://www.w3.org/2000/svg" viewBox="0 0 100 100">
  <defs>
    <style>
      .cls-1 {
        fill: #fff;
      }

      .cls-2 {
        fill: #f30;
      }
    </style>
  </defs>
  <path id="circle" class="cls-2" d="M100,50c0,13.8-5.6,26.3-14.65,35.35-9.05,9.05-21.55,14.65-35.35,14.65s-26.3-5.6-35.35-14.65C5.6,76.3,0,63.8,0,50S5.6,23.7,14.65,14.65C23.7,5.6,36.2,0,50,0c27.61,0,50,22.39,50,50Z"/>
  <path id="circle3" class="cls-1" d="M36.23,50c0,3.14-2.55,5.69-5.69,5.69s-5.69-2.55-5.69-5.69,2.55-5.69,5.69-5.69,5.69,2.55,5.69,5.69ZM75.15,50c0,3.14-2.55,5.69-5.69,5.69s-5.69-2.55-5.69-5.69,2.55-5.69,5.69-5.69,5.69,2.55,5.69,5.69ZM55.69,50c0,3.14-2.55,5.69-5.69,5.69s-5.69-2.55-5.69-5.69,2.55-5.69,5.69-5.69,5.69,2.55,5.69,5.69Z"/>
</svg>