<?xml version="1.0" encoding="UTF-8"?>
<svg id="icon_hh" data-name="icon hh" xmlns="http://www.w3.org/2000/svg" viewBox="0 0 500 500">
  <defs>
    <style>
      .cls-1 {
        fill: #e20;
      }

      .cls-2 {
        fill: #fff;
      }
    </style>
  </defs>
  <rect id="bg" class="cls-2" width="500" height="500"/>
  <path id="bell" d="M364.88,360.5l-231.62-.1c-11.12,0-18.98-11.45-19.72-20.69s1.27-19.42,7.4-25.95c28.76-30.68,37.53-63.38,38.06-105.52.5-39.48,27.43-72.67,64.79-84.81-1.22-16.27,9.92-29.17,25.49-29.7s27.8,13.34,26.75,29.55l5.57,3.51c1.47.92.79,6.06-.28,7.6-14.38,20.77-16.2,46.96-3.54,69.45,11.25,19.97,33.33,33.92,58.04,33.1,5.21-.17,7.27,2.71,8.19,7.58,4.42,23.56,13.33,46.21,29.98,63.46,7.24,7.5,11.69,14.58,12.54,25.78.9,11.83-6.66,26.75-21.66,26.74ZM278.69,373.63l-58.88.07c-3.08,0-7.39,4.29-6.22,7.5,5.7,15.78,20.89,25.4,36.94,25.08,15.11-.31,30.67-9.49,35.56-25.53,1.36-4.46-4.54-7.12-7.39-7.12Z"/>
  <path id="signal" class="cls-1" d="M386.42,172.04c0,28.68-23.25,51.93-51.93,51.93s-51.93-23.25-51.93-51.93,23.25-51.93,51.93-51.93,51.93,23.25,51.93,51.93ZM339.65,191.26v-38.36h-6.54c0,1.8-.23,3.21-.68,4.24-.45,1.03-1.17,1.76-2.16,2.21-.99.45-2.28.68-3.86.68h-3.29v6h8.32v25.23h8.21Z"/>
</svg>