<?xml version="1.0" encoding="UTF-8"?>
<svg id="_Слой_1" data-name="Слой 1" xmlns="http://www.w3.org/2000/svg" viewBox="0 0 500 500">
  <defs>
    <style>
      .cls-1 {
        fill: #51cc5c;
      }

      .cls-2 {
        fill: #fdfdfd;
        fill-rule: evenodd;
      }
    </style>
  </defs>
  <rect id="bg" class="cls-1" y=".35" width="500" height="500"/>
  <path id="curve" class="cls-2" d="M251.26,385.71h-.06c-23.2,0-46-5.83-66.26-16.88l-73.5,19.28,19.67-71.85c-12.13-21.03-18.52-44.88-18.51-69.31.03-76.44,62.23-138.64,138.65-138.64,37.09.02,71.9,14.46,98.08,40.66,26.18,26.21,40.58,61.04,40.57,98.08-.03,76.43-62.2,138.61-138.64,138.64ZM188.36,343.74l4.21,2.5c17.69,10.5,37.97,16.06,58.65,16.06h.05c63.51,0,115.21-51.7,115.23-115.24.01-30.79-11.96-59.74-33.72-81.53-21.76-21.78-50.69-33.78-81.47-33.79-63.56,0-115.26,51.69-115.28,115.23,0,21.77,6.08,42.98,17.62,61.33l2.74,4.36-11.64,42.52,43.62-11.44ZM316.37,276.92c2.42,1.17,4.05,1.96,4.74,3.12.87,1.44.87,8.38-2.02,16.47-2.89,8.09-16.73,15.48-23.38,16.47-5.97.89-13.52,1.26-21.82-1.37-5.03-1.6-11.48-3.73-19.75-7.3-32.48-14.02-54.42-45.5-58.57-51.45-.29-.42-.49-.71-.61-.86l-.03-.04c-1.83-2.45-14.12-18.84-14.12-35.8,0-15.96,7.84-24.32,11.45-28.17.25-.26.48-.51.68-.73,3.18-3.47,6.93-4.34,9.24-4.34s4.62.02,6.64.12c.25.01.51.01.78,0,2.02-.01,4.54-.03,7.02,5.94.96,2.29,2.35,5.7,3.83,9.29,2.98,7.26,6.27,15.28,6.85,16.44.87,1.73,1.44,3.76.29,6.07-.17.35-.33.67-.49.99-.87,1.77-1.5,3.07-2.98,4.79-.58.68-1.18,1.4-1.77,2.13-1.19,1.45-2.38,2.9-3.42,3.94-1.74,1.73-3.54,3.6-1.52,7.07s8.97,14.81,19.27,24c11.07,9.87,20.69,14.05,25.57,16.16.95.41,1.72.75,2.29,1.03,3.46,1.73,5.48,1.44,7.5-.87,2.02-2.31,8.66-10.12,10.97-13.58,2.31-3.47,4.62-2.89,7.79-1.73,3.18,1.16,20.21,9.54,23.67,11.27.68.34,1.31.64,1.89.93Z"/>
</svg>