<?xml version="1.0" encoding="UTF-8"?>
<svg xmlns="http://www.w3.org/2000/svg" viewBox="0 0 500 500">
  <defs>
    <style>
      .cls-1 {
        fill: #fdfdfe;
      }

      .cls-2 {
        fill: #2855b0;
      }

      .cls-3 {
        fill: #345595;
      }

      .cls-4 {
        fill: #325596;
      }

      .cls-5 {
        fill: #465d87;
      }

      .cls-6 {
        fill: #63ccfd;
      }
    </style>
  </defs>
  <rect class="cls-2" y=".35" width="500" height="500"/>
  <path class="cls-5" d="M372,463.91h-244s244,0,244,0Z"/>
  <path class="cls-4" d="M36.16,365.74l.02-230c.54-.12.61.3.83,1.27v227.47c-.24.96-.32,1.37-.85,1.26Z"/>
  <path class="cls-4" d="M463.84,365.74c-.52.1-.61-.31-.85-1.26v-227.47c.22-.97.29-1.39.83-1.27l.02,230Z"/>
  <path class="cls-1" d="M343,336.52c-58.69,1.07-121.89,1.07-181.05.01l1.54-2.55c6.85-2.32,12.94-6.35,18.46-10.98,24.94-20.91,38.76-51.34,51.67-79.8l2.42-.46,29.1-63.02c6.67-14.45,20-42.2,36.82-45.06,17.23-2.93,33.95,18.92,42.2,31.93,19.1,30.12,32.29,63.58,37.78,98.92,4.91,31.61-4.06,65.68-38.94,71Z"/>
  <path class="cls-6" d="M236.04,242.75l-12.32,26.43c-10.9,23.39-36.06,60.54-61.77,67.35-5.17,0-10.5.41-16.01-.69-21.84-4.36-29.61-25.07-29.49-45.38.23-39.81,13.13-78.5,36.25-110.78,5.13-7.17,10.86-12.93,17.95-17.37,8.83-5.54,18.43-4.2,25.37,3.6,6.28,7.05,11.05,15.1,15.1,23.91l22.31,48.56c.81,1.77,1.49,3.31,2.62,4.37Z"/>
  <path class="cls-3" d="M343,336.52c.62.36,2.06-.16,1.85,1.21h-180.7c-1.54.01-2.33.09-2.2-1.2h181.05Z"/>
</svg>