<?xml version="1.0" encoding="UTF-8"?>
<svg xmlns="http://www.w3.org/2000/svg" viewBox="0 0 500 500">
  <defs>
    <style>
      .cls-1 {
        fill: #fff;
      }

      .cls-2 {
        fill: #3290ec;
      }
    </style>
  </defs>
  <rect class="cls-2" y=".35" width="500" height="500"/>
  <path class="cls-1" d="M284.5,227.81c4.96-4.69,9.12-9.14,13.49-14.03.92-1.03,1.5-2.57,1.27-3.77s-1.12-2.96-2.58-3.26c-2.09-.43-4.34.19-6.13,1.34l-24.72,15.98-80.32,53.89c-8.51,5.71-18.78,9.78-29.09,8.22-6.98-1.05-13.58-2.39-20.32-4.5l-29.91-9.34c-3.25-1.01-6.22-2.63-8.75-4.71-3.49-2.87-3.67-7.8-.41-10.99,3.09-3.03,6.69-5.44,10.91-7.27l102.69-44.5,95.19-39.88,28.06-10.58c4.63-1.75,9.22-2.9,14.07-3.76,6.32-1.12,14.85.35,16.69,7.55,1.17,4.56,1.31,8.94.68,13.69l-5.72,43.74c-6,45.93-14.43,91.18-23.03,136.59-1.12,5.9-3.35,11.31-6.49,16-7.28,10.89-22.88,5.74-30.86.29l-15.9-10.87-28.07-18.77-33.29-22.52c-5.95-4.02-12.63-11.13-8.59-18.82,1.37-2.61,3.11-5.1,5.31-7.19l27.02-25.79,38.78-36.73Z"/>
</svg>