<?xml version="1.0" encoding="UTF-8"?>
<svg xmlns="http://www.w3.org/2000/svg" viewBox="0 0 500 500">
  <defs>
    <style>
      .cls-1 {
        fill: #153aff;
      }

      .cls-2 {
        fill: #fff;
      }
    </style>
  </defs>
  <rect class="cls-1" width="500" height="500"/>
  <path class="cls-2" d="M101.54,349.68c2.18-29.33,12.92-55.07,33.41-76.19,7.98-8.22,16.53-15.16,25.73-21.97l20.49-15.16c5.15-3.81,9.62-8.12,13.41-13.22,5.38-7.24,6.98-16.35,3.52-24.7-4.53-10.93-18.05-14.02-28.91-13.61-9.73.07-18.91,1.92-28.2,4.65l-22.38,8.77-10.56-31.45c26.29-12.19,54.74-18.98,83.89-15.65,25.06,3.09,46.24,16.31,50.35,42.62,2.51,16.05-1.33,31.49-11.22,44.42-5.82,7.62-12.36,14.26-20.01,20.18l-23.74,18.39c-7.22,5.6-13.89,11.24-20.08,17.88-5.16,5.99-9.61,12.14-12.06,20.26l90.52.02v34.76s-144.17,0-144.17,0ZM398.46,302.66v-32.88s-29.52-.06-29.52-.06v-118.85s-29.62,0-29.62,0l-99.25,125.67-.06,26.12h88.9s0,47.03,0,47.03l40.03-.04.02-47h29.5ZM286.12,270.46l44.42-58.47-1.64,57.78-42.78.69Z"/>
</svg>