<?xml version="1.0" encoding="UTF-8"?>
<svg id="icon_vk_messenger" xmlns="http://www.w3.org/2000/svg" viewBox="0 0 500 500">
  <defs>
    <style>
      .cls-1 {
        fill: #fff;
      }

      .cls-2 {
        fill: #07f;
      }

      .cls-3 {
        fill: #00e9ff;
      }
    </style>
  </defs>
  <rect id="bg" class="cls-2" width="500" height="500"/>
  <path id="cloud" class="cls-3" d="M500,0v316.58c-47.05,64.72-124.16,111.83-214.67,127.16v-77.81c-128.86-11-230.1-121.35-230.1-255.84C55.23,70.7,63.92,33.37,79.45,0h420.55Z"/>
  <path id="circles" class="cls-1" d="M208.92,147.84c0,21.02-17.04,38.06-38.06,38.06s-38.06-17.04-38.06-38.06,17.04-38.06,38.06-38.06,38.06,17.04,38.06,38.06ZM287.77,109.78c-21.02,0-38.06,17.04-38.06,38.06s17.04,38.06,38.06,38.06,38.06-17.04,38.06-38.06-17.04-38.06-38.06-38.06ZM404.69,109.78c-21.02,0-38.06,17.04-38.06,38.06s17.04,38.06,38.06,38.06,38.06-17.04,38.06-38.06-17.04-38.06-38.06-38.06Z"/>
</svg>