<?xml version="1.0" encoding="UTF-8"?>
<svg id="icon_ok" data-name="icon ok" xmlns="http://www.w3.org/2000/svg" viewBox="0 0 500 500">
  <defs>
    <style>
      .cls-1 {
        fill: #fff;
      }

      .cls-2 {
        fill: #f07d00;
      }
    </style>
  </defs>
  <rect id="bg" class="cls-2" width="500" height="500"/>
  <path id="curve" class="cls-1" d="M299.53,417.01l-49.54-49.55-49.18,49.28c-10.23,10.25-26.54,10.6-37.06.77-10.12-9.46-11.69-26.63-1.49-36.89l51.07-51.4c-19-4.54-36.45-11.7-52.48-21.96-12.49-7.99-15.52-24.83-7.58-36.77,8.36-12.59,24.53-15.16,37.09-7.31,36.28,22.65,83.05,22.6,119.32-.02,12.59-7.85,28.7-5.23,37.06,7.36,7.91,11.91,4.88,28.74-7.58,36.73-16.04,10.28-33.42,17.37-52.5,22.01l49.84,49.83c10.42,10.42,10.8,27.07.6,37.59-10.01,10.32-27.07,10.85-37.59.33ZM315.26,103.35c-33.78-35.43-89.26-37.43-125.37-4.99-40.68,36.55-39.89,100.29,1.7,135.8,36.47,31.15,91.06,28.25,124.16-6.99s32.44-89.28-.49-123.82ZM247.91,128.34c20.37-1.16,37.71,14.38,39.23,34.41,1.53,20.23-13.62,38.05-33.78,39.88s-38.45-12.97-40.42-33.62c-2.01-21.1,14.07-39.48,34.97-40.68Z"/>
</svg>