<?xml version="1.0" encoding="UTF-8"?>
<svg xmlns="http://www.w3.org/2000/svg" viewBox="0 0 500 500">
  <defs>
    <style>
      .cls-1 {
        fill: #fff;
      }

      .cls-2 {
        fill: #008cc7;
      }
    </style>
  </defs>
  <rect class="cls-2" width="500" height="500"/>
  <path class="cls-1" d="M376.53,308.83c-1.58-2.4-4.09-3.59-6.65-3.59-2.29,0-4.57.98-6.15,3.05-2.13,2.67-5.34,4.3-8.77,4.3h-6.21c-2.89,0-5.39-1.85-6.32-4.57-2.34-7.08-3.38-14.6-3.05-22.06l2.78-63.95c.44-10.13,3.27-19.99,8.17-28.82l11.22-19.99c5.12-7.41,4.03-17.49-2.61-23.59l-21.52-18.58c-7.3-6.7-27.24-7.46-33.94-.11l-7.14,7.68s-32.25-15.85-77.02-2.23c-52.78,16.01-96.31,77.02-101.97,145-5.67,68.04,28.98,92.93,81.54,92.93,61.23,0,84.43-49.84,84.43-49.84,0,0,5.44,22.18,17.71,35.74,12.38,13.68,41.77,11.21,69.01-4.64,18.79-11,14.22-34.81,6.48-46.74ZM283.33,260.46c-2.4,15.69-24.89,42.49-31.16,47.55-6.21,5.12-71.36,43.09-60.03-41.89,11.33-85.03,95.16-98.6,95.16-98.6,0,0,1.14,59.48-3.98,92.93Z"/>
</svg>