<?xml version="1.0" encoding="UTF-8"?>
<svg xmlns="http://www.w3.org/2000/svg" viewBox="0 0 500 500">
  <defs>
    <style>
      .cls-1 {
        fill: #51cc5c;
      }

      .cls-2 {
        fill: #fff;
      }
    </style>
  </defs>
  <rect class="cls-1" y=".35" width="500" height="500"/>
  <path class="cls-2" d="M116.56,388.11l9.84-73.82c-32.06-61.1-15.67-135.86,38.61-177.31,54.29-41.46,131.08-37.55,180.86,9.22,49.83,46.82,58.46,123.26,20.32,180.09-38.26,57-112.06,77.63-175.05,49.03l-74.58,12.79ZM145.04,359.64l49.06-8.42c52.7,28.39,117.14,12.68,151.23-35.01,34.3-47.99,27.39-113.87-15.72-153.86-43.36-40.22-110-41.77-155.19-3.53-44.56,37.71-54.82,102.34-23.06,152.44l-6.31,48.38ZM285.37,244.55c14.76,8.67,21.05,23.75,16.28,39.43-3.94,14.01-16.18,24.56-31.62,24.54l-62.55-.1.03-122.57,55.26-.2c6.76-.03,13.49,1.68,19.5,4.05,9.43,4.36,15.34,12.13,17.46,22.17,2.71,12.86-1.86,24.8-14.36,32.69ZM279.23,217.6c-1.74-7.05-8.91-12.46-16.42-12.49l-31.95-.12.07,31.82h24.63c12.4,0,26.55-7.52,23.66-19.21ZM279.71,273.98c.26-4.27-1.86-8.01-4.72-11.64-3.84-2.4-8.55-4.8-13.23-4.81l-30.89-.09.05,31.91,26.48-.04c9.35-.01,21.66-4.71,22.31-15.33Z"/>
</svg>