<?xml version="1.0" encoding="UTF-8"?>
<svg id="icon_avito" xmlns="http://www.w3.org/2000/svg" viewBox="0 0 500 500">
  <defs>
    <style>
      .cls-1 {
        fill: #fff;
      }
    </style>
  </defs>
  <rect id="bg" class="cls-1" x="0" y="0" width="500" height="500"/>
  <path id="earth" d="M251.26,72.45c-.42-.01-.84-.01-1.26-.01s-.84,0-1.26.01c-97.33.68-176.3,80.06-176.3,177.55s78.97,176.87,176.3,177.55c.42.01.84.01,1.26.01s.84,0,1.26-.01c97.33-.68,176.3-80.06,176.3-177.55s-78.97-176.87-176.3-177.55ZM240,260v44.52c-20.05.75-39.82,3.8-58.97,9.05-3.64-16.64-5.92-34.71-6.51-53.57h65.48ZM174.52,240c.59-18.86,2.87-36.94,6.51-53.58,19.15,5.25,38.92,8.3,58.97,9.05v44.53h-65.48ZM240,93.88v81.57c-18.33-.74-36.42-3.57-53.93-8.38,11.81-38.77,31.48-66.7,53.93-73.19ZM196.7,101.72c-5.83,7.18-11.25,15.62-16.17,25.24-5.3,10.36-9.85,21.78-13.59,33.99-11.84-4.34-23.35-9.63-34.42-15.83,17.29-19.36,39.29-34.43,64.18-43.4ZM120.03,161.04c13.37,7.69,27.35,14.14,41.77,19.32-4.21,18.72-6.7,38.85-7.3,59.64h-61.75c1.84-29.17,11.65-56.21,27.28-78.96ZM120.02,338.96c-15.62-22.75-25.43-49.79-27.27-78.96h61.75c.6,20.78,3.09,40.91,7.3,59.63-14.43,5.18-28.41,11.64-41.78,19.33ZM132.51,354.87c11.07-6.2,22.59-11.48,34.43-15.82,3.74,12.21,8.29,23.63,13.59,33.99,4.92,9.62,10.34,18.06,16.17,25.24-24.89-8.97-46.9-24.05-64.19-43.41ZM186.07,332.93c17.51-4.82,35.6-7.65,53.93-8.39v81.58c-22.45-6.49-42.12-34.42-53.93-73.19ZM379.97,161.04c15.63,22.75,25.44,49.79,27.28,78.96h-61.75c-.6-20.79-3.09-40.92-7.3-59.64,14.42-5.18,28.4-11.63,41.77-19.32ZM367.48,145.12c-11.07,6.2-22.58,11.49-34.42,15.83-3.74-12.21-8.29-23.63-13.59-33.99-4.92-9.62-10.34-18.06-16.17-25.24,24.89,8.97,46.89,24.04,64.18,43.4ZM260,93.88c22.45,6.49,42.12,34.42,53.93,73.19-17.51,4.81-35.6,7.64-53.93,8.38v-81.57ZM260,195.47c20.05-.75,39.82-3.8,58.97-9.05,3.64,16.64,5.92,34.72,6.51,53.58h-65.48v-44.53ZM260,260h65.48c-.59,18.86-2.87,36.93-6.51,53.57-19.15-5.25-38.92-8.3-58.97-9.05v-44.52ZM260,406.12v-81.58c18.33.74,36.42,3.57,53.93,8.39-11.81,38.77-31.48,66.7-53.93,73.19ZM303.3,398.28c5.83-7.18,11.25-15.62,16.17-25.24,5.3-10.36,9.85-21.78,13.59-33.99,11.84,4.34,23.36,9.62,34.43,15.82-17.29,19.36-39.3,34.44-64.19,43.41ZM379.98,338.96c-13.37-7.69-27.35-14.15-41.78-19.33,4.21-18.72,6.7-38.85,7.3-59.63h61.75c-1.84,29.17-11.65,56.21-27.27,78.96Z"/>
</svg>