<?xml version="1.0" encoding="UTF-8"?>
<svg id="icon_hh" xmlns="http://www.w3.org/2000/svg" viewBox="0 0 500 500">
  <defs>
    <style>
      .cls-1 {
        fill: #e20;
      }

      .cls-2 {
        fill: #fff;
        fill-rule: evenodd;
      }
    </style>
  </defs>
  <rect id="bg" class="cls-1" width="500" height="500"/>
  <path id="hh" class="cls-2" d="M375.35,268v64.77h-33.96v-57.13c0-13.73-.64-22.44-1.94-26.13-1.3-3.73-3.56-6.64-6.83-8.79-3.23-2.22-7.34-3.3-12.26-3.3-5.63,0-10.68,1.43-15.06,4.2-4.43,2.82-7.67,7.02-9.74,12.64-2.04,5.63-3.07,13.94-3.07,24.97v53.54h-33.97v-165.53h33.95v63.28c10.93-13.03,24.04-19.61,39.25-19.61,7.8,0,14.84,1.49,21.19,4.46,6.26,2.95,10.98,6.73,14.16,11.32,3.2,4.63,5.38,9.72,6.55,15.31,1.16,5.55,1.74,14.24,1.74,25.99ZM239.78,242.01c-1.17-5.59-3.33-10.68-6.54-15.31-3.17-4.59-7.9-8.37-14.21-11.32-6.29-2.97-13.31-4.46-21.14-4.46-15.21,0-28.32,6.57-39.25,19.61v-63.28h-33.98v165.53h33.96l.04-53.54c-.04-11.02.99-19.34,3.07-24.97,2.03-5.62,5.26-9.82,9.74-12.64,4.38-2.77,9.44-4.2,15.07-4.2,4.91,0,8.99,1.08,12.25,3.3,3.27,2.15,5.53,5.06,6.83,8.79,1.3,3.69,1.9,12.39,1.9,26.13v57.13h34v-64.77c0-11.74-.58-20.44-1.75-25.99Z"/>
</svg>