<?xml version="1.0" encoding="UTF-8"?>
<svg id="logo" xmlns="http://www.w3.org/2000/svg" viewBox="0 0 2834.65 881.57">
  <defs>
    <style>
      .cls-1 {
        fill: #f30;
      }
    </style>
  </defs>
  <path id="circle" class="cls-1" d="M2621.5,768.52h0c0-55.19,44.79-99.93,100.04-99.93h13.08c55.25,0,100.04,44.74,100.04,99.93h0c0,55.19-44.79,99.93-100.04,99.93h-13.08c-55.25,0-100.04-44.74-100.04-99.93Z"/>
  <path id="mitia" d="M840.65,491.21v377.24h-164.19v-331.31c0-45.93-6.94-80.37-20.79-103.34-13.88-22.96-36.5-34.44-67.87-34.44-19.7,0-36.5,5.47-50.35,16.41-13.87,10.93-24.63,26.78-32.29,47.56-7.66,20.77-11.49,46.11-11.49,76v329.12h-147.78v-329.12c0-45.19-6.56-79.83-19.7-103.89-13.13-24.05-35.76-36.08-67.86-36.08-19.71,0-36.68,5.47-50.91,16.41-14.23,10.93-25,26.97-32.29,48.1-7.3,21.16-10.94,46.3-10.94,75.46v329.12H0V282.37h147.77l3.67,94.74c6.47-14.77,14.18-28.13,23.15-40.07,16.41-21.87,36.29-38.63,59.65-50.3,23.35-11.66,48.89-17.49,76.63-17.49,48.88,0,88.47,14.21,118.76,42.63,21.65,20.33,37.81,45.7,48.45,76.1,6.24-17.52,14.17-33.23,23.79-47.12,16.42-23.67,36.67-41.55,60.76-53.57,24.08-12.03,51.07-18.04,81-18.04,40.86,0,75.88,8.38,105.08,25.14,29.18,16.78,51.8,41.75,67.86,74.9,16.05,33.18,24.08,73.81,24.08,121.92h0ZM1129.84,868.45V282.37h-164.19v586.09h164.19ZM1626.78,404.85v-122.48h-154.35v-137.81h-164.19v137.81h-94.15v122.48h94.15v287.56c0,61.19,14.28,105.91,42.74,133.95s72.93,42.11,133.51,42.11h142.29v-122.48h-82.1c-24.12,0-42.16-5.11-54.22-15.32-11.96-10.22-18.04-29.49-18.04-57.92v-267.9h154.36ZM1887.31,282.37v586.1h-164.19V282.37h164.19ZM1041.21,199.86h13.08c55.25,0,100.04-44.74,100.04-99.93h0C1154.32,44.74,1109.53,0,1054.28,0h-13.08C985.96,0,941.17,44.74,941.17,99.93h0c0,55.19,44.79,99.93,100.04,99.93ZM2534.52,868.47h-144.22v-78.15c-6.08,10.31-13.41,19.95-21.9,28.91-18.62,19.66-42.74,34.98-72.26,45.97-29.52,10.89-63.67,16.38-102.35,16.38-60.58,0-109.98-14.07-148.27-42.11-38.39-28.04-57.5-67.26-57.5-117.57s16.21-91.64,48.72-119.69c32.41-28.04,80.46-48.66,143.93-61.77l189.37-37.2c0-37.87-8.59-66.49-25.76-85.86-17.17-19.27-41.77-28.91-73.9-28.91s-55.76,7.03-73.32,21.3c-17.46,14.17-28.85,35.18-33.96,62.83l-165.25-7.61c10.9-64.18,39.94-112.85,87.02-145.99,47.08-33.15,108.91-49.72,185.51-49.72,87.59,0,153.48,20.72,197.57,62.35,44.18,41.53,66.28,102.34,66.28,182.62l.29,354.24v-.02ZM2370.04,606.06l-133.51,28.43c-26.34,5.11-46.21,13.59-59.71,25.63-13.5,12.05-20.26,27.56-20.26,46.55s6.56,34.98,19.78,45.87c13.12,10.98,32.03,16.38,56.92,16.38,26.91,0,50.65-5.3,71.1-15.8,20.45-10.6,36.47-26.12,48.14-46.45,11.67-20.43,17.56-44.52,17.56-72.18v-28.43h-.02ZM1798.67,199.86h13.08c55.25,0,100.04-44.74,100.04-99.93h0C1911.79,44.74,1867,0,1811.75,0h-13.08c-55.24,0-100.03,44.74-100.03,99.93h0c0,55.19,44.79,99.93,100.04,99.93h-.01ZM1041.21,199.86h13.08c55.25,0,100.04-44.74,100.04-99.93h0C1154.32,44.74,1109.53,0,1054.28,0h-13.08C985.96,0,941.17,44.74,941.17,99.93h0c0,55.19,44.79,99.93,100.04,99.93ZM1798.67,199.86h13.08c55.25,0,100.04-44.74,100.04-99.93h0C1911.79,44.74,1867,0,1811.75,0h-13.08c-55.24,0-100.03,44.74-100.03,99.93h0c0,55.19,44.79,99.93,100.04,99.93h-.01Z"/>
</svg>